:SAMPLES-PER-SECOND 30
:FULLY-SPECIFIED
:DEGREES
1
root  8.36243 40.9244 -2.9052 -111.931 -88.5898 109.58
RightUpLeg  0.480894 -8.83353 -6.27875
RightLeg  5.749 -4.53872 3.33313
RightFoot  -2.69978 0.0556134 -1.08323
RightToes  0.000482159 0.542163 -0.142577
Spine  7.3263 -0.166542 -1.92855
Spine1  -1.71749 -0.404749 1.25293
HEad  4.99865 -3.03995 -3.65617
LeftShoulder1  0.996337 -2.64606 -8.40027
LeftArm  -18.9565 11.5785 -6.08718
LeftForeArm  1.17439 0.0347971 -0.911103
LeftHand  -0.25398 0.0180481 5.50724
RightShoulder  0.412864 -0.0699111 4.10637
RightArm  -18.0226 -2.69584 2.57396
RightForeArm  0.20409 1.19864 3.68351
RightHand  -1.67717 5.85428 -17.5723
LeftUpLeg  2.66675 5.22636 2.24521
LeftLeg  1.62733 17.4646 -4.27387
LeftFoot  -2.02948 -0.0816445 1.24071
LeftToes  1.06248e-005 4.65855e-005 -8.18498e-006
2
root  8.35454 40.9244 -2.9052 -112.46 -88.5898 110.102
RightUpLeg  0.505043 -8.83315 -6.28504
RightLeg  5.73508 -4.52103 3.33089
RightFoot  -2.70248 0.0563772 -1.0951
RightToes  0.000482159 0.542163 -0.142577
Spine  7.31188 -0.166145 -1.91484
Spine1  -1.66174 -0.392981 1.21543
HEad  4.85336 -2.98364 -3.58876
LeftShoulder1  0.996337 -2.65831 -8.38756
LeftArm  -19.0002 11.6021 -6.06048
LeftForeArm  1.33426 0.0530216 -0.878032
LeftHand  -0.25398 0.0180481 5.50724
RightShoulder  0.412869 -0.0552009 4.12238
RightArm  -18.0594 -2.74069 2.56098
RightForeArm  0.113616 1.21638 3.67535
RightHand  -1.67647 5.83723 -17.592
LeftUpLeg  2.69542 5.22298 2.24129
LeftLeg  1.6111 17.4722 -4.27354
LeftFoot  -2.04708 -0.0815613 1.23941
LeftToes  1.06248e-005 4.65855e-005 -8.18498e-006
3
root  8.33984 40.9244 -2.9052 -112.044 -88.5898 109.676
RightUpLeg  0.554055 -8.83269 -6.2987
RightLeg  5.71262 -4.5162 3.32915
RightFoot  -2.71825 0.0560285 -1.08968
RightToes  0.000482159 0.542163 -0.142577
Spine  7.31431 -0.16909 -1.89397
Spine1  -1.60438 -0.385487 1.15591
HEad  4.67175 -2.87583 -3.45963
LeftShoulder1  0.996337 -2.71793 -8.38561
LeftArm  -19.0386 11.6515 -5.99007
LeftForeArm  1.50077 0.0501611 -0.844769
LeftHand  -0.25398 0.0180481 5.50724
RightShoulder  0.41288 -0.0483932 4.16625
RightArm  -18.0924 -2.78986 2.49561
RightForeArm  0.11588 1.2266 3.65802
RightHand  -1.67999 5.83648 -17.6309
LeftUpLeg  2.73094 5.2137 2.23402
LeftLeg  1.60631 17.4668 -4.26535
LeftFoot  -2.05602 -0.0799826 1.21487
LeftToes  1.06248e-005 4.65855e-005 -8.18498e-006
4
root  8.32454 40.9244 -2.90517 -111.434 -88.5901 109.073
RightUpLeg  0.581045 -8.82788 -6.29752
RightLeg  5.69895 -4.5309 3.3224
RightFoot  -2.73508 0.0544757 -1.06555
RightToes  0.000482159 0.542163 -0.142577
Spine  7.33598 -0.185151 -1.85179
Spine1  -1.59217 -0.384545 1.06533
HEad  4.62507 -2.80594 -3.36096
LeftShoulder1  0.99496 -2.77125 -8.33457
LeftArm  -19.0923 11.7162 -5.94481
LeftForeArm  1.71741 0.0220436 -0.80621
LeftHand  -0.25398 0.0180481 5.50724
RightShoulder  0.412904 -0.0787101 4.25041
RightArm  -18.098 -2.76368 2.40789
RightForeArm  0.193285 1.20076 3.64559
RightHand  -1.68958 5.85496 -17.7002
LeftUpLeg  2.74054 5.20563 2.23059
LeftLeg  1.61636 17.4655 -4.2533
LeftFoot  -2.05649 -0.0800469 1.21587
LeftToes  1.06248e-005 4.65855e-005 -8.18498e-006
5
root  8.31039 40.9244 -2.90496 -112.21 -88.5864 109.886
RightUpLeg  0.55475 -8.80734 -6.27831
RightLeg  5.70789 -4.53744 3.30396
RightFoot  -2.74784 0.0548749 -1.07175
RightToes  0.000482159 0.542163 -0.142577
Spine  7.35981 -0.19559 -1.79905
Spine1  -1.62405 -0.375359 0.963338
HEad  4.75057 -2.80271 -3.34571
LeftShoulder1  0.987385 -2.77421 -8.17403
LeftArm  -19.2311 11.7883 -6.00894
LeftForeArm  2.13085 0.0973765 -0.70917
LeftHand  -0.25398 0.0180481 5.50724
RightShoulder  0.412925 -0.118844 4.32746
RightArm  -18.0604 -2.69793 2.34721
RightForeArm  0.172377 1.15117 3.65627
RightHand  -1.69136 5.83563 -17.747
LeftUpLeg  2.73404 5.19718 2.22666
LeftLeg  1.59763 17.4929 -4.25287
LeftFoot  -2.0692 -0.0809139 1.22935
LeftToes  1.06248e-005 4.65855e-005 -8.18498e-006
6
root  8.29444 40.9244 -2.9047 -113.106 -88.5696 110.82
RightUpLeg  0.521644 -8.80331 -6.2771
RightLeg  5.73546 -4.522 3.29464
RightFoot  -2.77897 0.0567183 -1.1004
RightToes  0.000482159 0.542163 -0.142577
Spine  7.36559 -0.194107 -1.8018
Spine1  -1.61381 -0.372481 0.955285
HEad  4.94807 -2.82564 -3.41085
LeftShoulder1  0.977164 -2.76643 -8.01432
LeftArm  -19.4679 11.8421 -6.12795
LeftForeArm  2.70061 0.341103 -0.538178
LeftHand  -0.25398 0.0180481 5.50724
RightShoulder  0.412318 -0.12903 4.3193
RightArm  -18.0035 -2.67604 2.30574
RightForeArm  0.189182 1.12272 3.67156
RightHand  -1.68293 5.80661 -17.7052
LeftUpLeg  2.74388 5.18605 2.21605
LeftLeg  1.55213 17.5179 -4.26495
LeftFoot  -2.09366 -0.0785484 1.19258
LeftToes  1.06248e-005 4.65855e-005 -8.18498e-006
7
root  8.27493 40.9244 -2.90451 -111.916 -88.5667 109.629
RightUpLeg  0.555831 -8.83249 -6.31049
RightLeg  5.75247 -4.50907 3.30935
RightFoot  -2.83451 0.055183 -1.07654
RightToes  0.000482159 0.542163 -0.142577
Spine  7.34581 -0.200108 -1.87048
Spine1  -1.46488 -0.401937 1.07145
HEad  5.07907 -2.86363 -3.51628
LeftShoulder1  0.980696 -2.78828 -8.01686
LeftArm  -19.6946 11.8399 -6.15432
LeftForeArm  3.23521 0.576456 -0.375566
LeftHand  -0.25398 0.0180481 5.50724
RightShoulder  0.40727 -0.138732 4.18499
RightArm  -18.0303 -2.7141 2.32199
RightForeArm  0.467175 1.15174 3.64518
RightHand  -1.68803 5.87851 -17.6496
LeftUpLeg  2.78319 5.18096 2.20787
LeftLeg  1.53915 17.4954 -4.27086
LeftFoot  -2.1236 -0.0750422 1.13807
LeftToes  1.06248e-005 4.65855e-005 -8.18498e-006
8
root  8.25588 40.9241 -2.90447 -109.501 -88.59 107.183
RightUpLeg  0.642361 -8.86081 -6.33834
RightLeg  5.74072 -4.52775 3.33079
RightFoot  -2.8805 0.0504741 -1.00336
RightToes  0.000482159 0.542163 -0.142577
Spine  7.3375 -0.226688 -1.8972
Spine1  -1.24658 -0.446074 1.15296
HEad  5.11816 -2.93798 -3.5899
LeftShoulder1  0.993031 -2.82127 -8.14419
LeftArm  -19.7531 11.7966 -6.05193
LeftForeArm  3.60692 0.594847 -0.329992
LeftHand  -0.25398 0.0180481 5.50724
RightShoulder  0.393921 -0.202744 3.99307
RightArm  -18.1774 -2.76163 2.47375
RightForeArm  0.769335 1.21402 3.58299
RightHand  -1.71153 6.0068 -17.6952
LeftUpLeg  2.82983 5.18628 2.21484
LeftLeg  1.57064 17.438 -4.25952
LeftFoot  -2.16886 -0.0749835 1.13716
LeftToes  1.06248e-005 4.65855e-005 -8.18498e-006
9
root  8.24203 40.9223 -2.90463 -108.312 -88.6186 105.988
RightUpLeg  0.681436 -8.86101 -6.32877
RightLeg  5.74082 -4.56438 3.33745
RightFoot  -2.91537 0.0490586 -0.981364
RightToes  0.000482159 0.542163 -0.142577
Spine  7.38626 -0.264624 -1.8286
Spine1  -1.12396 -0.474101 1.09254
HEad  5.17814 -3.00277 -3.56739
LeftShoulder1  1.00445 -2.85423 -8.25421
LeftArm  -19.6052 11.7956 -5.91055
LeftForeArm  3.90368 0.447963 -0.400847
LeftHand  -0.25398 0.0180481 5.50724
RightShoulder  0.384776 -0.274072 3.97176
RightArm  -18.269 -2.7433 2.59066
RightForeArm  0.679411 1.2659 3.57021
RightHand  -1.70782 5.95209 -17.7389
LeftUpLeg  2.84497 5.1956 2.23407
LeftLeg  1.60082 17.3871 -4.24574
LeftFoot  -2.2375 -0.0748092 1.13445
LeftToes  1.06248e-005 4.65855e-005 -8.18498e-006
10
root  8.23019 40.9178 -2.90593 -108.228 -88.6343 105.938
RightUpLeg  0.627278 -8.8657 -6.31364
RightLeg  5.83024 -4.57359 3.34448
RightFoot  -3.01509 0.0518828 -1.02525
RightToes  0.000482159 0.542163 -0.142577
Spine  7.45252 -0.308896 -1.80129
Spine1  -1.05379 -0.516669 1.06436
HEad  5.35424 -2.96367 -3.46102
LeftShoulder1  1.02062 -2.90645 -8.39254
LeftArm  -19.3785 11.8995 -5.78124
LeftForeArm  4.57437 0.265748 -0.485059
LeftHand  -0.25398 0.0180481 5.50724
RightShoulder  0.40097 -0.24002 4.38866
RightArm  -18.1355 -2.604 2.28991
RightForeArm  0.211913 1.43924 3.68007
RightHand  -1.65347 5.6534 -17.6353
LeftUpLeg  2.80868 5.21874 2.26171
LeftLeg  1.652 17.3388 -4.24472
LeftFoot  -2.34011 -0.0686138 1.05221
LeftToes  1.06248e-005 4.65855e-005 -8.18498e-006
11
root  8.21104 40.9075 -2.91047 -107.122 -88.6497 104.854
RightUpLeg  0.548897 -8.90323 -6.32455
RightLeg  6.0409 -4.55307 3.36885
RightFoot  -3.2271 0.0513221 -1.03331
RightToes  0.000482159 0.542163 -0.142577
Spine  7.43544 -0.373305 -1.93983
Spine1  -0.785549 -0.62827 1.25731
HEad  5.61306 -2.79452 -3.32725
LeftShoulder1  1.05013 -2.9655 -8.7395
LeftArm  -19.2463 12.1423 -5.68011
LeftForeArm  6.12766 -0.211746 -0.526363
LeftHand  -0.25398 0.0180481 5.50724
RightShoulder  0.445044 -0.102664 5.29186
RightArm  -17.9443 -2.43358 1.60313
RightForeArm  -0.597088 2.14243 3.90334
RightHand  -1.62515 5.43862 -17.6713
LeftUpLeg  2.75548 5.28055 2.31011
LeftLeg  1.80529 17.2528 -4.24558
LeftFoot  -2.5079 -0.0598931 0.971513
LeftToes  1.06248e-005 4.65855e-005 -8.18498e-006
12
root  8.18065 40.8943 -2.91679 -104.601 -88.6816 102.292
RightUpLeg  0.52021 -8.93535 -6.33006
RightLeg  6.33174 -4.56689 3.36673
RightFoot  -3.47768 0.044483 -0.990266
RightToes  0.000482159 0.542163 -0.142577
Spine  7.31802 -0.471271 -2.13787
Spine1  -0.251313 -0.795869 1.534
HEad  5.93577 -2.5231 -3.17032
LeftShoulder1  1.09738 -3.02943 -9.36808
LeftArm  -19.3755 12.6836 -5.72928
LeftForeArm  8.48398 -1.64912 -0.557561
LeftHand  -0.25398 0.0180481 5.50724
RightShoulder  0.500498 0.0356007 6.48404
RightArm  -18.0047 -2.51537 1.20857
RightForeArm  -2.2581 3.74759 4.21006
RightHand  -1.72705 5.65334 -18.3837
LeftUpLeg  2.75407 5.36812 2.37917
LeftLeg  2.03321 17.1135 -4.2296
LeftFoot  -2.73289 -0.0564303 0.969118
LeftToes  1.06248e-005 4.65855e-005 -8.18498e-006
13
root  8.14339 40.8845 -2.92055 -101.458 -88.7069 99.0703
RightUpLeg  0.522209 -8.93039 -6.30434
RightLeg  6.64985 -4.649 3.27239
RightFoot  -3.69102 0.0408286 -0.982686
RightToes  0.000482159 0.542163 -0.142577
Spine  7.16888 -0.59595 -2.25312
Spine1  0.333367 -0.968228 1.69642
HEad  6.50515 -2.13495 -2.98077
LeftShoulder1  1.1867 -3.19869 -10.3759
LeftArm  -20.0049 13.7835 -6.10015
LeftForeArm  10.7843 -4.54784 -0.59737
LeftHand  -0.25398 0.0180481 5.50724
RightShoulder  0.56785 0.201265 7.81148
RightArm  -18.226 -3.08876 1.66406
RightForeArm  -4.86019 6.12146 4.6169
RightHand  -1.95306 6.24458 -19.6972
LeftUpLeg  2.81919 5.41947 2.4223
LeftLeg  2.21208 16.9604 -4.19476
LeftFoot  -2.92387 -0.0517407 0.942493
LeftToes  1.06248e-005 4.65855e-005 -8.18498e-006
14
root  8.10065 40.877 -2.92144 -97.6829 -88.6848 95.2329
RightUpLeg  0.5094 -8.90717 -6.28892
RightLeg  6.97758 -4.75497 3.09881
RightFoot  -3.93641 0.0364735 -0.976092
RightToes  0.000482159 0.542163 -0.142577
Spine  6.9817 -0.712011 -2.36387
Spine1  0.862314 -1.13601 1.89234
HEad  7.57509 -1.65364 -2.83977
LeftShoulder1  1.36379 -3.57252 -12.1068
LeftArm  -21.4108 15.4271 -6.84418
LeftForeArm  12.2402 -8.77966 -0.660595
LeftHand  -0.25398 0.0180481 5.50724
RightShoulder  0.680073 0.573291 9.31948
RightArm  -18.1056 -4.12101 2.77628
RightForeArm  -7.02358 8.64973 5.07879
RightHand  -2.15346 6.7911 -20.7214
LeftUpLeg  2.88725 5.40241 2.39096
LeftLeg  2.33932 16.8639 -4.13941
LeftFoot  -3.04217 -0.0426991 0.845118
LeftToes  1.06248e-005 4.65855e-005 -8.18498e-006
15
root  8.04438 40.864 -2.92528 -94.0518 -88.6231 91.5548
RightUpLeg  0.504827 -8.91449 -6.30971
RightLeg  7.3262 -4.79542 2.91534
RightFoot  -4.32477 0.0225596 -0.84545
RightToes  0.000482159 0.542163 -0.142577
Spine  6.67456 -0.761758 -2.55707
Spine1  1.5075 -1.28566 2.31811
HEad  9.14432 -1.2814 -2.82907
LeftShoulder1  1.65077 -4.0884 -14.8241
LeftArm  -24.0473 17.1463 -7.9123
LeftForeArm  13.6641 -13.671 -1.02949
LeftHand  -0.25398 0.0180481 5.50724
RightShoulder  0.861039 1.20316 11.1168
RightArm  -17.2046 -5.44117 4.07726
RightForeArm  -7.28679 10.7916 5.40375
RightHand  -2.18289 6.91839 -20.7812
LeftUpLeg  2.92568 5.36708 2.31814
LeftLeg  2.54993 16.843 -4.05115
LeftFoot  -3.21571 -0.0368021 0.81179
LeftToes  1.06248e-005 4.65855e-005 -8.18498e-006
